<?xml version="1.0" standalone="no"?>
<!DOCTYPE svg PUBLIC "-//W3C//DTD SVG 20010904//EN"
 "http://www.w3.org/TR/2001/REC-SVG-20010904/DTD/svg10.dtd">
<svg version="1.0" xmlns="http://www.w3.org/2000/svg"
 width="200.000000pt" height="200.000000pt" viewBox="0 0 200.000000 200.000000"
 preserveAspectRatio="xMidYMid meet">
<metadata>
Created by potrace 1.14, written by Peter Selinger 2001-2017
</metadata>
<g transform="translate(0.000000,200.000000) scale(0.100000,-0.100000)"
fill="#000000" stroke="none">
<path d="M562 1430 c-124 -90 -128 -257 -8 -319 44 -23 50 -23 102 -12 44 10
66 23 104 59 64 62 72 102 36 175 -28 57 -58 84 -124 110 -56 23 -62 22 -110
-13z m136 -16 c64 -32 102 -89 102 -153 0 -75 -93 -151 -185 -151 -144 0 -183
196 -59 298 47 39 74 40 142 6z"/>
<path d="M615 1290 c-9 -15 4 -30 25 -30 13 0 18 7 17 20 -1 21 -31 28 -42 10z"/>
<path d="M1283 1439 c-147 -73 -164 -268 -29 -330 87 -40 210 -14 258 54 53
74 13 198 -86 265 -56 37 -85 40 -143 11z m116 -9 c73 -37 121 -114 121 -194
0 -139 -235 -185 -321 -64 -62 86 -1 225 116 266 41 14 41 14 84 -8z"/>
<path d="M1332 1273 c2 -10 10 -18 18 -18 8 0 16 8 18 18 2 12 -3 17 -18 17
-15 0 -20 -5 -18 -17z"/>
<path d="M1305 930 c3 -5 12 -10 20 -10 21 0 84 -40 95 -60 6 -10 10 -34 10
-52 1 -25 3 -29 10 -17 15 25 -7 86 -38 107 -50 34 -111 54 -97 32z"/>
<path d="M563 908 c-32 -36 -43 -63 -43 -109 0 -53 14 -43 15 11 1 50 30 90
76 106 l34 12 -31 1 c-20 1 -38 -7 -51 -21z"/>
<path d="M1221 860 c-24 -11 -58 -23 -75 -25 -17 -3 -45 -8 -63 -11 -86 -16
-244 -1 -317 30 -60 25 -93 21 -132 -18 -37 -37 -41 -60 -20 -109 46 -107 219
-182 416 -182 121 1 178 20 243 83 51 49 67 82 67 137 0 46 -22 105 -39 105
-5 0 -15 2 -23 5 -7 2 -33 -4 -57 -15z m19 -25 c0 -8 -7 -15 -15 -15 -16 0
-20 12 -8 23 11 12 23 8 23 -8z m-416 -14 c8 -12 -21 -34 -34 -26 -17 11 -11
35 9 35 11 0 22 -4 25 -9z m364 -3 c-5 -16 -48 -24 -48 -10 0 11 17 20 38 21
8 1 12 -5 10 -11z m-288 -17 c0 -12 -29 -23 -41 -15 -18 10 -9 24 16 24 14 0
25 -4 25 -9z m52 -13 c-11 -11 -32 -3 -32 12 0 4 9 6 21 3 13 -4 17 -9 11 -15z
m158 13 c0 -19 -22 -23 -38 -7 -15 15 -14 16 11 16 15 0 27 -4 27 -9z m-75
-11 c-3 -5 -12 -10 -20 -10 -8 0 -17 5 -20 10 -4 6 5 10 20 10 15 0 24 -4 20
-10z m-300 -151 c11 -17 -1 -21 -15 -4 -8 9 -8 15 -2 15 6 0 14 -5 17 -11z
m70 -30 c11 -17 0 -20 -21 -4 -17 13 -17 14 -2 15 9 0 20 -5 23 -11z m59 -28
c4 -5 -3 -7 -14 -4 -23 6 -26 13 -6 13 8 0 17 -4 20 -9z m313 3 c-3 -3 -12 -4
-19 -1 -8 3 -5 6 6 6 11 1 17 -2 13 -5z m-247 -14 c0 -5 -4 -10 -9 -10 -6 0
-13 5 -16 10 -3 6 1 10 9 10 9 0 16 -4 16 -10z m135 -10 c3 -5 -3 -10 -14 -10
-12 0 -21 5 -21 10 0 6 6 10 14 10 8 0 18 -4 21 -10z"/>
</g>
</svg>
